<?xml version="1.0" encoding="UTF-8"?>
<!-- Generator: visioncortex VTracer -->
<svg id="svg" version="1.1" xmlns="http://www.w3.org/2000/svg" style="display: block;" viewBox="0 0 1024 1024"><path d="M0,0 L1024,0 L1024,1024 L0,1024 Z " transform="translate(0,0)" style="fill: #000000;"/><path d="M0,0 L1,0 L1,82 L-3,92 L-12,102 L-24,111 L-43,125 L-64,141 L-80,153 L-96,165 L-112,177 L-131,191 L-136,193 L-137,196 L-142,201 L-137,203 L-115,217 L-96,229 L-72,244 L-53,256 L-31,270 L-23,276 L-18,282 L-15,291 L-15,306 L-20,316 L-27,323 L-44,335 L-56,344 L-75,358 L-89,368 L-108,382 L-118,389 L-119,402 L-125,411 L-135,417 L-150,417 L-159,412 L-165,404 L-166,402 L-166,386 L-161,378 L-154,372 L-149,370 L-137,370 L-130,371 L-117,362 L-98,348 L-79,334 L-64,323 L-46,310 L-38,303 L-37,301 L-37,294 L-41,289 L-59,278 L-64,280 L-77,290 L-95,303 L-111,315 L-130,329 L-149,343 L-168,357 L-184,369 L-198,379 L-200,382 L-201,423 L-182,409 L-175,408 L-170,411 L-167,415 L-167,423 L-177,432 L-195,445 L-214,459 L-220,463 L-222,463 L-222,383 L-220,375 L-215,366 L-207,359 L-188,345 L-176,336 L-157,322 L-138,308 L-126,299 L-115,291 L-100,280 L-85,269 L-81,266 L-81,264 L-100,252 L-121,239 L-145,224 L-164,212 L-183,200 L-194,193 L-202,183 L-205,176 L-205,160 L-201,151 L-194,143 L-176,130 L-164,121 L-148,109 L-129,95 L-110,81 L-105,77 L-103,77 L-103,68 L-99,59 L-93,52 L-88,49 L-71,49 L-63,54 L-56,62 L-55,65 L-55,78 L-60,88 L-69,94 L-74,96 L-82,96 L-91,94 L-109,107 L-128,121 L-148,136 L-160,145 L-178,158 L-183,163 L-183,173 L-179,177 L-164,186 L-159,185 L-138,169 L-122,157 L-110,148 L-91,134 L-71,119 L-52,105 L-39,95 L-23,83 L-21,80 L-21,42 L-37,54 L-40,56 L-48,56 L-54,51 L-55,49 L-55,42 L-50,37 L-37,27 L-19,14 L-3,2 Z " transform="translate(616,272)" style="fill: #EDEDED;"/><path d="M0,0 L10,5 L10,7 L15,9 L20,13 L7,23 L-11,36 L-24,46 L-38,56 L-57,70 L-76,84 L-92,96 L-104,105 L-118,115 L-120,118 L-121,159 L-102,145 L-95,144 L-90,147 L-87,151 L-87,159 L-97,168 L-115,181 L-134,195 L-140,199 L-142,199 L-142,119 L-140,111 L-135,102 L-127,95 L-108,81 L-96,72 L-77,58 L-58,44 L-46,35 L-35,27 L-20,16 L-5,5 Z " transform="translate(536,536)" style="fill: #F2F1F2;"/></svg>