<?xml version="1.0" standalone="no"?>
<!DOCTYPE svg PUBLIC "-//W3C//DTD SVG 20010904//EN"
 "http://www.w3.org/TR/2001/REC-SVG-20010904/DTD/svg10.dtd">
<svg version="1.0" xmlns="http://www.w3.org/2000/svg"
 width="1024.000000pt" height="1024.000000pt" viewBox="0 0 1024.000000 1024.000000"
 preserveAspectRatio="xMidYMid meet">
<metadata>
Created by potrace 1.16, written by Peter Selinger 2001-2019
</metadata>
<g transform="translate(0.000000,1024.000000) scale(0.100000,-0.100000)"
fill="#000000" stroke="none">
<path d="M0 5120 l0 -5120 5120 0 5120 0 0 5120 0 5120 -5120 0 -5120 0 0
-5120z m6168 1905 c-3 -321 -4 -343 -24 -386 -12 -25 -36 -62 -54 -82 -18 -21
-308 -244 -644 -496 -661 -495 -709 -529 -700 -507 4 10 -7 21 -33 35 -49 25
-106 78 -101 94 6 17 226 186 817 626 319 237 507 384 517 402 11 23 14 67 12
213 l-3 185 -99 -75 c-82 -61 -106 -74 -137 -74 -72 0 -126 75 -100 138 7 16
53 58 109 99 53 39 174 128 267 197 l170 126 3 -78 c2 -42 2 -230 0 -417z
m-687 -15 c47 -24 104 -88 119 -135 16 -47 8 -140 -15 -185 -50 -96 -165 -145
-275 -116 -52 13 -56 13 -85 -7 -31 -22 -495 -364 -720 -530 -191 -142 -185
-136 -185 -196 0 -62 10 -74 131 -145 113 -66 195 -118 309 -192 85 -55 782
-495 1047 -661 153 -96 193 -154 201 -289 3 -65 1 -89 -15 -125 -25 -57 -70
-108 -136 -156 -29 -20 -92 -67 -142 -103 -89 -65 -160 -118 -465 -340 -85
-62 -182 -133 -215 -158 l-60 -44 -6 -68 c-6 -81 -34 -130 -99 -175 -37 -26
-54 -30 -121 -34 -70 -3 -83 0 -129 25 -99 54 -146 162 -116 267 39 135 172
206 308 165 38 -11 40 -10 114 41 42 29 144 103 227 165 191 141 327 241 489
358 131 96 158 126 158 175 0 43 -23 69 -116 128 -103 67 -174 104 -156 83 14
-18 -44 -63 -858 -662 -267 -196 -493 -370 -503 -385 -15 -25 -17 -51 -15
-226 l3 -198 87 67 c48 36 100 71 114 77 89 33 172 -80 114 -154 -11 -13 -59
-54 -107 -89 -294 -217 -394 -289 -408 -294 -13 -5 -15 40 -15 382 0 422 4
464 54 549 28 47 138 132 793 614 92 68 184 136 203 151 19 15 103 75 185 133
83 58 161 115 175 125 l25 20 -100 64 c-55 36 -158 101 -230 145 -71 44 -245
153 -385 241 -140 89 -297 187 -348 219 -152 94 -209 188 -200 326 5 81 37
154 85 198 15 14 89 71 163 126 191 141 471 348 632 467 124 91 137 104 138
132 1 106 83 222 171 242 56 13 134 5 180 -18z"/>
<path d="M5294 6876 c-28 -28 -34 -42 -34 -76 0 -34 6 -48 34 -76 73 -73 185
-26 186 77 0 67 -43 109 -113 109 -31 0 -46 -7 -73 -34z"/>
<path d="M4694 3686 c-69 -30 -92 -101 -54 -164 22 -36 54 -52 107 -52 50 0
103 54 103 104 0 55 -23 91 -70 110 -48 19 -46 19 -86 2z"/>
</g>
</svg>
